<svg width="167" height="160" viewBox="0 0 167 160" fill="none" xmlns="http://www.w3.org/2000/svg">
<path d="M124.645 0.930908H41.8613C18.9904 0.930908 0.389282 19.532 0.389282 42.4029V118.139C0.389282 141.01 18.9904 159.611 41.8613 159.611H124.645C147.516 159.611 166.117 141.01 166.117 118.139V42.4029C166.117 19.532 147.516 0.930908 124.645 0.930908ZM15.0175 42.4029C15.0175 27.5996 27.058 15.5591 41.8613 15.5591H124.645C139.449 15.5591 151.489 27.5996 151.489 42.4029V118.139C151.489 132.943 139.449 144.983 124.645 144.983H41.8613C27.058 144.983 15.0175 132.943 15.0175 118.139V42.4029Z" fill="#663A10"/>
<path d="M83.2495 118.847C104.522 118.847 121.829 101.54 121.829 80.2672C121.829 58.9947 104.522 41.6874 83.2495 41.6874C61.977 41.6874 44.6697 58.9947 44.6697 80.2672C44.6697 101.54 61.977 118.847 83.2495 118.847ZM83.2495 56.3232C96.4545 56.3232 107.194 67.0623 107.194 80.2672C107.194 93.4722 96.4545 104.211 83.2495 104.211C70.0445 104.211 59.3055 93.4722 59.3055 80.2672C59.3055 67.0623 70.0445 56.3232 83.2495 56.3232Z" fill="#663A10"/>
<path d="M125.406 47.9208C131.137 47.9208 135.803 43.2553 135.803 37.5243C135.803 31.7932 131.137 27.1277 125.406 27.1277C119.675 27.1277 115.01 31.7932 115.01 37.5243C115.01 43.2553 119.675 47.9208 125.406 47.9208Z" fill="#663A10"/>
</svg>
